<?xml version="1.0" standalone="no"?>
<!DOCTYPE svg PUBLIC "-//W3C//DTD SVG 20010904//EN"
 "http://www.w3.org/TR/2001/REC-SVG-20010904/DTD/svg10.dtd">
<svg version="1.0" xmlns="http://www.w3.org/2000/svg"
 width="512.000000pt" height="512.000000pt" viewBox="0 0 512.000000 512.000000"
 preserveAspectRatio="xMidYMid meet">
<metadata>
Created by potrace 1.14, written by Peter Selinger 2001-2017
</metadata>
<g transform="translate(0.000000,512.000000) scale(0.100000,-0.100000)"
fill="#000000" stroke="none">
<path d="M0 2560 l0 -2560 2560 0 2560 0 0 2560 0 2560 -2560 0 -2560 0 0
-2560z m2867 2138 c318 -237 696 -413 1118 -521 140 -36 358 -79 468 -92 l57
-6 0 -897 c0 -516 -5 -937 -10 -992 -77 -741 -550 -1253 -1844 -1994 l-98 -56
-77 41 c-144 79 -476 281 -635 387 -645 427 -1000 804 -1146 1217 -44 126 -68
230 -85 375 -12 102 -15 291 -15 1021 l0 897 88 12 c711 98 1386 403 1786 809
l80 80 105 -103 c59 -56 152 -137 208 -178z"/>
<path d="M1190 2665 l0 -725 170 0 170 0 0 199 0 199 238 4 c237 4 237 4 332
37 113 38 170 73 238 145 54 57 79 100 108 186 27 79 24 244 -5 324 -64 179
-207 292 -425 337 -79 16 -139 19 -458 19 l-368 0 0 -725z m795 415 c97 -49
128 -94 133 -195 2 -42 -1 -89 -8 -110 -18 -53 -72 -109 -133 -136 -48 -22
-68 -24 -249 -27 l-198 -4 0 249 c0 138 3 253 8 257 4 4 90 6 192 4 l186 -3
69 -35z"/>
<path d="M2610 2665 l0 -725 453 0 c496 0 523 3 660 60 99 41 158 94 199 178
30 61 33 75 33 157 0 77 -4 99 -29 152 -34 74 -113 154 -183 185 l-47 21 30
20 c49 35 93 87 121 141 22 41 28 69 31 142 4 83 2 97 -23 153 -35 77 -95 133
-188 176 -130 60 -178 65 -642 65 l-415 0 0 -725z m785 459 c33 -8 70 -22 83
-30 38 -25 62 -74 62 -129 0 -71 -27 -110 -98 -143 -55 -26 -63 -27 -274 -30
l-218 -4 0 176 0 176 193 0 c142 0 209 -4 252 -16z m115 -600 c58 -27 95 -71
104 -124 13 -84 -25 -149 -109 -187 -34 -15 -76 -18 -297 -21 l-258 -3 0 181
0 181 258 -3 c236 -3 261 -5 302 -24z"/>
</g>
</svg>
