<svg width="32" height="32" viewBox="0 0 32 32" fill="none" xmlns="http://www.w3.org/2000/svg">
<path d="M16 2C8.282 2 2 8.282 2 16C2 23.718 8.282 30 16 30C23.718 30 30 23.718 30 16C30 8.282 23.718 2 16 2ZM16 26C10.486 26 6 21.514 6 16C6 10.486 10.486 6 16 6C21.514 6 26 10.486 26 16C26 21.514 21.514 26 16 26Z" fill="#112152"/>
<path d="M15.9996 10.4286C12.9781 10.4286 10.4282 12.9784 10.4282 16C10.4282 19.0216 12.9781 21.5714 15.9996 21.5714C19.0212 21.5714 21.5711 19.0216 21.5711 16C21.5711 12.9784 19.0212 10.4286 15.9996 10.4286Z" fill="#112152"/>
</svg>
