<svg width="24" height="24" viewBox="0 0 24 24" fill="none" xmlns="http://www.w3.org/2000/svg">
<path d="M6.89941 10.2734H8.84941V12.2234H6.89941V10.2734ZM6.89941 14.1734H8.84941V16.1234H6.89941V14.1734ZM10.7994 10.2734H12.7494V12.2234H10.7994V10.2734ZM10.7994 14.1734H12.7494V16.1234H10.7994V14.1734ZM14.6994 10.2734H16.6494V12.2234H14.6994V10.2734ZM14.6994 14.1734H16.6494V16.1234H14.6994V14.1734Z" fill="#616267"/>
<path d="M4.95 21H18.6C19.6754 21 20.55 20.1254 20.55 19.05V5.4C20.55 4.32457 19.6754 3.45 18.6 3.45H16.65V1.5H14.7V3.45H8.85V1.5H6.9V3.45H4.95C3.87457 3.45 3 4.32457 3 5.4V19.05C3 20.1254 3.87457 21 4.95 21ZM18.6 7.35L18.601 19.05H4.95V7.35H18.6Z" fill="#616267"/>
</svg>
