<svg width="16" height="16" viewBox="0 0 16 16" fill="none" xmlns="http://www.w3.org/2000/svg">
<path d="M3.35018 13.85C3.32734 13.9478 3.32693 14.0495 3.34898 14.1474C3.37103 14.2454 3.41497 14.3371 3.4775 14.4157C3.54003 14.4942 3.61954 14.5576 3.71006 14.6011C3.80058 14.6446 3.89976 14.667 4.00018 14.6667C4.13187 14.6667 4.26062 14.6277 4.37018 14.5547L8.00018 12.1347L11.6302 14.5547C11.7437 14.6301 11.8777 14.6689 12.0139 14.6659C12.1502 14.6629 12.2823 14.6183 12.3924 14.538C12.5026 14.4577 12.5855 14.3456 12.63 14.2167C12.6746 14.0879 12.6786 13.9485 12.6415 13.8173L11.4222 9.55068L14.4462 6.82934C14.543 6.74214 14.6122 6.62845 14.6451 6.50235C14.6781 6.37625 14.6733 6.24326 14.6314 6.11984C14.5896 5.99641 14.5125 5.88796 14.4096 5.80789C14.3068 5.72783 14.1828 5.67966 14.0528 5.66934L10.2522 5.36668L8.60751 1.72601C8.55514 1.60875 8.46994 1.50916 8.36221 1.43925C8.25448 1.36934 8.12882 1.3321 8.0004 1.33203C7.87197 1.33196 7.74627 1.36906 7.63846 1.43885C7.53066 1.50864 7.44535 1.60814 7.39285 1.72534L5.74818 5.36668L1.94751 5.66868C1.81982 5.67879 1.69774 5.72548 1.59588 5.80316C1.49403 5.88084 1.41671 5.98622 1.37318 6.1067C1.32964 6.22717 1.32174 6.35763 1.35041 6.48248C1.37908 6.60733 1.44311 6.72127 1.53485 6.81068L4.34418 9.54868L3.35018 13.85ZM8.00018 3.61934L9.36151 6.63334L9.75351 6.66468H9.75418L12.4022 6.87468L10.2215 8.83734L10.2208 8.83868L9.91218 9.11601L10.0262 9.51401V9.51601L10.8615 12.4393L8.00018 10.532V3.61934Z" fill="#FFD700"/>
</svg>
