<svg width="16" height="16" viewBox="0 0 16 16" fill="none" xmlns="http://www.w3.org/2000/svg">
<path d="M4.34418 9.54834L3.35085 13.8497C3.32009 13.9799 3.32932 14.1164 3.37734 14.2413C3.42536 14.3663 3.50994 14.4738 3.62003 14.5499C3.73011 14.626 3.86059 14.6671 3.99442 14.6679C4.12824 14.6687 4.2592 14.6291 4.37018 14.5543L8.00018 12.1343L11.6302 14.5543C11.7437 14.6297 11.8777 14.6686 12.0139 14.6656C12.1502 14.6626 12.2823 14.6179 12.3924 14.5376C12.5026 14.4573 12.5855 14.3452 12.63 14.2164C12.6746 14.0876 12.6786 13.9482 12.6415 13.817L11.4222 9.55034L14.4462 6.82901C14.543 6.7418 14.6122 6.62812 14.6451 6.50202C14.6781 6.37592 14.6733 6.24293 14.6314 6.1195C14.5896 5.99608 14.5125 5.88763 14.4096 5.80756C14.3068 5.72749 14.1828 5.67932 14.0528 5.66901L10.2522 5.36634L8.60751 1.72568C8.55507 1.60845 8.46982 1.5089 8.36205 1.43905C8.25429 1.3692 8.12861 1.33203 8.00018 1.33203C7.87176 1.33203 7.74607 1.3692 7.63831 1.43905C7.53054 1.5089 7.44529 1.60845 7.39285 1.72568L5.74818 5.36634L1.94751 5.66834C1.81982 5.67846 1.69774 5.72515 1.59588 5.80283C1.49403 5.88051 1.41671 5.98589 1.37318 6.10636C1.32964 6.22683 1.32174 6.3573 1.35041 6.48214C1.37908 6.60699 1.44311 6.72093 1.53485 6.81034L4.34418 9.54834ZM6.24618 6.66434C6.36518 6.65497 6.47946 6.61375 6.57705 6.54502C6.67464 6.47628 6.75194 6.38256 6.80085 6.27368L8.00018 3.61968L9.19951 6.27368C9.24842 6.38256 9.32572 6.47628 9.42331 6.54502C9.5209 6.61375 9.63518 6.65497 9.75418 6.66434L12.4022 6.87434L10.2215 8.83701C10.0322 9.00768 9.95685 9.27034 10.0262 9.51568L10.8615 12.439L8.37085 10.7783C8.26153 10.705 8.13284 10.6658 8.00118 10.6658C7.86952 10.6658 7.74083 10.705 7.63151 10.7783L5.02885 12.5137L5.72885 9.48301C5.75451 9.37154 5.75107 9.25535 5.71884 9.1456C5.68662 9.03585 5.6267 8.93624 5.54485 8.85634L3.51951 6.88168L6.24618 6.66434Z" fill="#FFD700"/>
</svg>
